<svg xmlns="http://www.w3.org/2000/svg" width="106" height="45" viewBox="0 0 106 45">
    <defs>
        <linearGradient id="a" x1=".006%" x2="99.994%" y1="50.035%" y2="50.035%">
            <stop offset="11%" stop-color="#ED1E79"/>
            <stop offset="99%" stop-color="#FBA763"/>
        </linearGradient>
        <linearGradient id="b" x1=".15%" x2="99.713%" y1="50.172%" y2="50.172%">
            <stop offset="11%" stop-color="#ED1E79"/>
            <stop offset="99%" stop-color="#FBA763"/>
        </linearGradient>
        <linearGradient id="c" x1="11.072%" x2="98.939%" y1="49.998%" y2="49.998%">
            <stop offset="0%" stop-color="#ED1E79"/>
            <stop offset="100%" stop-color="#FBA763"/>
        </linearGradient>
    </defs>
    <g fill="none" fill-rule="nonzero">
        <path fill="url(#a)" d="M16.741 13.682a15.955 15.955 0 0 0-11.452 4.47A14.556 14.556 0 0 0 .612 29.078a14.534 14.534 0 0 0 4.71 10.928 15.987 15.987 0 0 0 11.42 4.47 15.955 15.955 0 0 0 11.452-4.448A14.545 14.545 0 0 0 32.882 29.1a14.48 14.48 0 0 0-4.721-10.928 15.966 15.966 0 0 0-11.42-4.491zm4.568 19.965a6.426 6.426 0 0 1-9.124 0 6.426 6.426 0 0 1 0-9.125 6.426 6.426 0 0 1 9.124 0 6.426 6.426 0 0 1 0 9.125z"/>
        <path fill="url(#b)" d="M60.016 10.458V27.32a11.321 11.321 0 0 1-.907 4.71 5.945 5.945 0 0 1-5.923 3.562 6.338 6.338 0 0 1-5.082-2.186 6.47 6.47 0 0 1-1.573-4.283 6 6 0 0 1 3.508-5.683 6.557 6.557 0 0 1 1.573-.634 7.234 7.234 0 0 1 1.574-.153c.733.009 1.464.078 2.185.208a9.55 9.55 0 0 1 1.607.448v-9.103a11.376 11.376 0 0 0-1.782-.448c-.68-.09-1.367-.13-2.054-.12a22.763 22.763 0 0 0-3.967.328 16.25 16.25 0 0 0-3.53 1.093 14.392 14.392 0 0 0-5.922 4.655 15.037 15.037 0 0 0-2.896 9.3 15.2 15.2 0 0 0 2.513 8.589 14.064 14.064 0 0 0 4.95 4.655 17.353 17.353 0 0 0 8.743 2.186 24.358 24.358 0 0 0 3.748-.306c1.2-.166 2.378-.47 3.508-.907a13.944 13.944 0 0 0 7.65-6.284 18.872 18.872 0 0 0 1.813-8.939V.688a9.662 9.662 0 0 0-9.736 9.77z"/>
        <path fill="url(#c)" d="M102.547 19.9a14.206 14.206 0 0 0-6.885-5.257 17.091 17.091 0 0 0-2.961-.754 21.856 21.856 0 0 0-3.279-.207c-1.38.006-2.755.145-4.108.415a15.299 15.299 0 0 0-10.163 7.07 16.14 16.14 0 0 0-2.35 8.524 14.01 14.01 0 0 0 4.787 11.004 15.157 15.157 0 0 0 10.326 3.803c.864.005 1.725-.087 2.568-.273a27.44 27.44 0 0 0 2.59-.689l3.202-.917a9.66 9.66 0 0 1-3.147-7.748c-.657.2-1.325.364-2 .491-.656.12-1.322.179-1.989.175a6.786 6.786 0 0 1-3.442-.929 6.163 6.163 0 0 1-2.426-2.36 6.294 6.294 0 0 1-.776-3.049 6.491 6.491 0 0 1 3.279-5.715 6.71 6.71 0 0 1 3.354-.874 6.47 6.47 0 0 1 3.279.786 5.77 5.77 0 0 1 2.841 3.279c.462 1.462.669 2.992.612 4.524v3.027a9.671 9.671 0 0 0 9.66 9.671V30.292a17.638 17.638 0 0 0-2.972-10.392z"/>
    </g>
</svg>
