<svg xmlns="http://www.w3.org/2000/svg" viewBox="0 0 30 30">
    <defs>
        <linearGradient id="a" x1="11.677%" x2="95.867%" y1="0%" y2="100%">
            <stop offset="0%" stop-color="#ED1E79"/>
            <stop offset="100%" stop-color="#FBA763"/>
        </linearGradient>
    </defs>
    <g fill="none" fill-rule="evenodd">
        <path fill="#FFF" fill-opacity=".01" d="M0 0h30v30H0z"/>
        <path fill="url(#a)" fill-rule="nonzero" d="M7.269 2.4c.22 0 .414.076.583.228l5.68 5.68c.153.17.229.364.229.584 0 .22-.076.414-.228.583l-3.5 3.474 6.974 6.974 3.474-3.5a.846.846 0 0 1 .583-.228c.22 0 .415.076.584.229l5.68 5.68c.152.17.228.364.228.583 0 .22-.076.414-.228.584l-4.057 4.057a1.156 1.156 0 0 1-.28.165.786.786 0 0 1-.304.063c-2.79 0-5.418-.532-7.886-1.597-2.469-1.065-4.62-2.515-6.454-4.35-1.835-1.834-3.284-3.985-4.35-6.453C2.934 12.687 2.4 10.058 2.4 7.269c0-.101.021-.203.063-.304.043-.102.098-.195.165-.28l4.058-4.057a.846.846 0 0 1 .583-.228z"/>
    </g>
</svg>
